<?xml version="1.0" encoding="UTF-8"?>
<svg width="58px" height="40px" viewBox="0 0 58 40" version="1.1" xmlns="http://www.w3.org/2000/svg" xmlns:xlink="http://www.w3.org/1999/xlink">
    <title>Brand/logo p&amp;v color</title>
    <g id="Brand/logo-p&amp;v-color" stroke="none" stroke-width="1" fill="none" fill-rule="evenodd">
        <g id="Group-11">
            <path d="M19.5948885,23.7000038 C19.0479223,24.2560357 18.2531592,24.5864315 17.474513,24.5864315 L14.4314468,24.5864315 L16.2083315,19.4461578 L17.014175,19.4522017 C18.1302681,19.4290337 19.2493831,19.4914865 19.8799556,20.1009056 C20.2315048,20.4413744 20.4077831,20.9158148 20.4168488,21.5544457 C20.4299437,22.3985666 20.1458839,23.1419572 19.5948885,23.7000038 M17.7686459,16.102915 L11.2282192,16.102915 C11.1798686,16.2469595 11.121445,16.4161866 11.0438826,16.6448447 C11.5092571,16.6468593 12.2496258,16.6801003 12.6001677,17.1636064 C12.7200369,17.3298116 12.7804751,17.5292578 12.7804751,17.7609378 C12.7804751,17.937216 12.7462268,18.1306185 12.6767228,18.341145 L7.55458056,33.453731 L11.3883806,33.453731 C11.4901183,33.1555689 13.2841273,27.9266525 13.2841273,27.9266525 L17.9207488,27.9337036 C21.4332188,27.9326963 24.3302259,25.160595 24.3755546,21.7559065 L24.3755546,21.6158912 C24.3755546,16.9430067 21.2045607,16.2016308 17.7686459,16.102915" id="Fill-1" fill="#9E0B2A"></path>
            <path d="M44.2368751,30.1257992 L43.0855263,30.1257992 C43.0855263,30.1257992 43.7986977,16.5725202 43.822873,16.1000945 L38.4045833,16.1000945 C38.3542181,16.2401098 38.2937799,16.4113515 38.2121882,16.6430315 L38.2534877,16.6430315 C39.3343252,16.6460534 39.9830291,17.3118815 39.9880656,18.4269674 L39.9880656,18.4320039 L39.6193923,26.6042634 C39.6193923,26.6042634 39.2930257,32.9966163 39.2698577,33.4529252 C39.7201227,33.4529252 46.3784039,33.4509106 46.6513834,33.4509106 C46.7732672,33.1980772 54.7329856,16.7387254 55.042228,16.1000945 C54.4378454,16.1000945 51.2164863,16.1011018 50.9656676,16.1011018 C50.8407619,16.3589717 44.2368751,30.1257992 44.2368751,30.1257992" id="Fill-3" fill="#9E0B2A"></path>
            <path d="M28.9174895,24.9214609 C29.1803959,25.5792306 29.3123528,25.8683269 29.7072161,26.4999067 C30.3387959,27.4739699 31.1275151,28.5266029 31.7590949,29.2115698 L32.5760186,30.0788588 L32.7331581,30.2359982 C31.6543352,31.3168357 29.7857858,32.105555 28.4178666,32.105555 C26.5483099,32.105555 25.3919246,31.0519147 25.3919246,29.3425194 C25.3919246,27.6844965 26.5231273,26.235993 28.9174895,24.9214609 M32.206338,17.2891165 C33.0232617,17.2891165 33.5752645,17.7887394 33.5752645,18.5009035 C33.5752645,19.2634328 33.0746342,20.1589263 32.3393021,20.8156887 C31.5757655,21.4744657 30.7326518,22.0254611 29.8381656,22.4475216 C29.5752592,21.7625547 29.4966895,21.3676915 29.4966895,20.6061694 C29.4966895,18.7638099 30.7074692,17.2891165 32.206338,17.2891165 M24.9174843,25.8683269 C23.9444283,26.9995296 23.3652284,28.3936387 23.3652284,29.6316157 C23.3652284,32.105555 25.1803907,33.7897677 27.8910465,33.7897677 C29.2327758,33.7897677 30.7326518,33.3938971 31.9968187,32.7361274 C32.7079755,32.3684614 33.0484443,32.1317449 33.9167406,31.4215954 C34.7336644,32.105555 35.2070974,32.4742283 36.7321561,33.5530512 L36.9960698,33.7353733 L38.1272725,32.4218485 C37.5490798,31.999788 37.390933,31.8688385 36.6807835,31.3168357 C35.9434368,30.7104386 35.78529,30.5784817 35.3380469,30.1312386 C35.9162396,29.5258487 36.1015836,29.2629423 36.6273964,28.4460186 C37.2861734,27.3692103 37.4956927,26.89477 37.9177532,25.6588076 L36.2063432,25.6588076 C35.78529,26.6318636 35.6543405,26.9209599 35.23228,27.6049195 C34.8918112,28.1851268 34.6802773,28.420836 34.1544644,28.9476561 C33.5752645,28.4732158 32.8902976,27.6844965 32.0491985,26.5260966 C31.259472,25.4482811 30.8636014,24.7905114 30.4969426,23.9745949 C31.6543352,23.3943876 32.7855379,22.6580482 33.6800241,21.8945116 C34.8646139,20.9214557 35.4961937,19.7096686 35.4961937,18.4475164 C35.4961937,16.7894935 34.2330342,15.6844808 32.3393021,15.6844808 C29.6286463,15.6844808 27.6019501,17.7887394 27.6019501,20.6061694 C27.6019501,21.6316052 27.8114694,22.6046611 28.1801428,23.369205 C26.4445575,24.3936335 25.6276338,25.0524105 24.9174843,25.8683269" id="Fill-5" fill="#9E0B2A"></path>
            <polygon id="Fill-7" fill="#EA5B0B" points="5.33548926 40 43.4841166 40 45.1078911 36.6426549 6.47273578 36.6426549"></polygon>
            <path d="M48.0524429,3.50032977 C44.7827332,1.91584016 41.3055189,0.83399537 37.9955171,0.373657318 C32.7907759,-0.349587148 27.8056271,-0.0222132601 23.1821005,1.34973516 C18.8799039,2.62397506 14.9786145,4.76852585 11.5819845,7.72194197 C7.98691556,10.8486144 5.02947022,14.8758169 3.02896394,19.3704085 C1.08083748,23.7461383 0.0362629537,28.6809219 0,33.4474857 L3.71493815,33.4474857 C3.77235449,25.5270522 6.82650104,18.0206208 12.3394773,12.4874985 C17.9219576,6.88185021 25.4445059,3.77633114 33.5251007,3.7420828 C37.9008305,3.72395132 42.0952454,4.61037908 45.993513,6.37920538 C49.8464518,8.12687829 53.2380453,10.6693143 56.0927456,13.9279436 L57.7417027,10.5192259 C55.0501857,7.67762058 51.7945783,5.31448476 48.0524429,3.50032977" id="Fill-9" fill="#9E0B2A"></path>
        </g>
    </g>
</svg>